<svg width="8" height="8" viewBox="0 0 8 8" fill="none" xmlns="http://www.w3.org/2000/svg">
<path fill-rule="evenodd" clip-rule="evenodd" d="M3.77736 6.99133L2.04611 7.94248C1.81226 8.07095 1.52302 7.977 1.40008 7.73262C1.35112 7.63531 1.33423 7.52385 1.35201 7.41549L1.68265 5.40094C1.70927 5.23877 1.65782 5.0733 1.54508 4.95846L0.144463 3.53175C-0.0447254 3.33903 -0.0485965 3.02253 0.135817 2.82483C0.209251 2.7461 0.305473 2.69487 0.409584 2.67906L2.34518 2.38514C2.50099 2.36148 2.63569 2.25922 2.70537 2.11167L3.57099 0.278776C3.68792 0.0311959 3.97476 -0.0704543 4.21168 0.0517337C4.30602 0.10039 4.38238 0.180188 4.42894 0.278776L5.29457 2.11167C5.36425 2.25922 5.49894 2.36148 5.65476 2.38514L7.59035 2.67906C7.85181 2.71876 8.03296 2.97243 7.99497 3.24566C7.97984 3.35445 7.93081 3.45501 7.85547 3.53175L6.45486 4.95846C6.34212 5.0733 6.29067 5.23877 6.31728 5.40094L6.64792 7.41549C6.69258 7.6876 6.5177 7.94603 6.2573 7.9927C6.15361 8.01129 6.04695 7.99364 5.95383 7.94248L4.22258 6.99133C4.08321 6.91477 3.91672 6.91477 3.77736 6.99133ZM3.39212 6.29018C3.77138 6.08182 4.2285 6.08182 4.60776 6.29018L5.75604 6.92104L5.52782 5.5305C5.46014 5.11818 5.59141 4.69601 5.88395 4.39801L6.8826 3.38076L5.53462 3.17607C5.11267 3.112 4.75343 2.83925 4.57116 2.4533L3.99994 1.2438L3.42873 2.4533C3.24646 2.83925 2.88721 3.112 2.46526 3.17607L1.11729 3.38076L2.11593 4.39801C2.40847 4.69601 2.53974 5.11818 2.47206 5.5305L2.24384 6.92104L3.39212 6.29018Z" fill="black"/>
</svg>
