<svg width="67" height="18" viewBox="0 0 67 18" fill="none" xmlns="http://www.w3.org/2000/svg">
<path d="M0.387188 17.5V0.699999H2.78719V17.5H0.387188ZM13.4009 17.692C12.1049 17.692 10.9129 17.484 9.82488 17.068C8.73688 16.636 7.79288 16.036 6.99288 15.268C6.19288 14.484 5.56888 13.572 5.12088 12.532C4.67288 11.492 4.44888 10.348 4.44888 9.1C4.44888 7.852 4.67288 6.708 5.12088 5.668C5.56888 4.628 6.19288 3.724 6.99288 2.956C7.80888 2.172 8.76088 1.572 9.84888 1.156C10.9369 0.724 12.1369 0.508 13.4489 0.508C14.7769 0.508 15.9929 0.724 17.0969 1.156C18.2009 1.588 19.1369 2.236 19.9049 3.1L18.4169 4.588C17.7289 3.916 16.9769 3.428 16.1609 3.124C15.3609 2.804 14.4889 2.644 13.5449 2.644C12.5849 2.644 11.6889 2.804 10.8569 3.124C10.0409 3.444 9.32888 3.892 8.72088 4.468C8.12888 5.044 7.66488 5.732 7.32888 6.532C7.00888 7.316 6.84888 8.172 6.84888 9.1C6.84888 10.012 7.00888 10.868 7.32888 11.668C7.66488 12.452 8.12888 13.14 8.72088 13.732C9.32888 14.308 10.0409 14.756 10.8569 15.076C11.6729 15.396 12.5609 15.556 13.5209 15.556C14.4169 15.556 15.2729 15.42 16.0889 15.148C16.9209 14.86 17.6889 14.388 18.3929 13.732L19.7609 15.556C18.9289 16.26 17.9529 16.796 16.8329 17.164C15.7289 17.516 14.5849 17.692 13.4009 17.692ZM17.4569 15.244V9.004H19.7609V15.556L17.4569 15.244ZM22.3559 17.5V0.699999H24.3239L35.4359 14.5H34.4039V0.699999H36.8039V17.5H34.8359L23.7239 3.7H24.7559V17.5H22.3559ZM37.2885 17.5L44.8965 0.699999H47.2725L54.9045 17.5H52.3845L45.5925 2.044H46.5525L39.7605 17.5H37.2885ZM40.5285 13.3L41.1765 11.38H50.6325L51.3285 13.3H40.5285ZM57.9029 17.5V2.788H52.1429V0.699999H66.0389V2.788H60.2789V17.5H57.9029Z" fill="#343434"/>
</svg>
